<svg viewBox="0 0 1440 900" xmlns="http://www.w3.org/2000/svg">
  <!-- Background -->
  <rect width="1440" height="900" fill="#F9FAFB"/>
  
  <!-- Sidebar -->
  <rect width="256" height="900" fill="white"/>
  <rect x="256" width="1" height="900" fill="#E5E7EB"/>
  
  <!-- Logo -->
  <circle cx="64" cy="50" r="20" fill="#3B82F6"/>
  <text x="95" y="58" font-family="Arial, sans-serif" font-size="20" font-weight="bold" fill="#111827">Logo</text>
  
  <!-- Sidebar Menu -->
  <text x="56" y="149" font-family="Arial, sans-serif" font-size="15" font-weight="500" fill="#6B7280">Dashboard</text>
  <text x="56" y="201" font-family="Arial, sans-serif" font-size="15" font-weight="500" fill="#6B7280">Gráfico</text>
  <text x="56" y="253" font-family="Arial, sans-serif" font-size="15" font-weight="500" fill="#6B7280">Desahogo</text>
  <text x="56" y="305" font-family="Arial, sans-serif" font-size="15" font-weight="500" fill="#6B7280">Ejercicios</text>
  <text x="56" y="357" font-family="Arial, sans-serif" font-size="15" font-weight="500" fill="#6B7280">Retos</text>
  <text x="56" y="409" font-family="Arial, sans-serif" font-size="15" font-weight="500" fill="#6B7280">Consejos</text>
  
  <!-- Top Bar -->
  <rect x="256" width="1184" height="80" fill="white"/>
  <rect x="256" y="80" width="1184" height="1" fill="#E5E7EB"/>
  <text x="1300" y="50" font-family="Arial, sans-serif" font-size="16" font-weight="500" fill="#374151">Juan</text>
  <circle cx="1370" cy="40" r="20" fill="#3B82F6"/>
  
  <!-- Main Content -->
  <g transform="translate(296, 120)">
    <!-- Title -->
    <text x="0" y="0" font-family="Arial, sans-serif" font-size="30" font-weight="bold" fill="#111827">Mi Perfil</text>
    
    <!-- Profile Card -->
    <rect x="0" y="50" width="1040" height="250" rx="16" fill="white" filter="url(#profileShadow)"/>
    
    <!-- Cover gradient -->
    <defs>
      <linearGradient id="coverGradient" x1="0%" y1="0%" x2="100%" y2="0%">
        <stop offset="0%" style="stop-color:#3B82F6;stop-opacity:1" />
        <stop offset="100%" style="stop-color:#8B5CF6;stop-opacity:1" />
      </linearGradient>
    </defs>
    <rect x="0" y="50" width="1040" height="100" rx="16" fill="url(#coverGradient)"/>
    
    <!-- Avatar -->
    <circle cx="100" cy="150" r="50" fill="white" stroke="white" stroke-width="4"/>
    <circle cx="100" cy="150" r="46" fill="#3B82F6"/>
    <text x="100" y="165" font-family="Arial, sans-serif" font-size="32" fill="white" text-anchor="middle">JD</text>
    
    <!-- Edit button on avatar -->
    <circle cx="135" cy="175" r="16" fill="#374151"/>
    <path d="M130 175 L133 178 L140 171" stroke="white" stroke-width="2" fill="none"/>
    
    <!-- User Info -->
    <text x="180" y="165" font-family="Arial, sans-serif" font-size="24" font-weight="bold" fill="#111827">Juan Pérez</text>
    <text x="180" y="190" font-family="Arial, sans-serif" font-size="15" fill="#6B7280">juan.perez@email.com</text>
    <text x="180" y="215" font-family="Arial, sans-serif" font-size="15" fill="#6B7280">🎂 Miembro desde Marzo 2024</text>
    
    <!-- Stats -->
    <g transform="translate(680, 165)">
      <g>
        <text x="0" y="0" font-family="Arial, sans-serif" font-size="28" font-weight="bold" fill="#3B82F6">127</text>
        <text x="0" y="22" font-family="Arial, sans-serif" font-size="13" fill="#6B7280">Días activo</text>
      </g>
      <g transform="translate(120, 0)">
        <text x="0" y="0" font-family="Arial, sans-serif" font-size="28" font-weight="bold" fill="#10B981">23</text>
        <text x="0" y="22" font-family="Arial, sans-serif" font-size="13" fill="#6B7280">Retos completados</text>
      </g>
      <g transform="translate(260, 0)">
        <text x="0" y="0" font-family="Arial, sans-serif" font-size="28" font-weight="bold" fill="#F59E0B">8</text>
        <text x="0" y="22" font-family="Arial, sans-serif" font-size="13" fill="#6B7280">Medallas</text>
      </g>
    </g>
    
    <!-- Edit Profile Button -->
    <rect x="880" y="245" width="140" height="44" rx="8" fill="white" stroke="#D1D5DB" stroke-width="2"/>
    <text x="950" y="273" font-family="Arial, sans-serif" font-size="15" font-weight="600" fill="#374151" text-anchor="middle">Editar perfil</text>
  </g>
  
  <!-- Settings Section -->
  <g transform="translate(296, 420)">
    <text x="0" y="0" font-family="Arial, sans-serif" font-size="22" font-weight="600" fill="#111827">Configuración</text>
    
    <!-- Settings Card -->
    <rect x="0" y="30" width="1040" height="360" rx="16" fill="white" filter="url(#profileShadow)"/>
    
    <!-- Settings Items -->
    <!-- Notifications -->
    <g transform="translate(32, 70)">
      <text x="0" y="0" font-family="Arial, sans-serif" font-size="17" font-weight="600" fill="#111827">Notificaciones</text>
      <text x="0" y="22" font-family="Arial, sans-serif" font-size="14" fill="#6B7280">Recibe recordatorios diarios</text>
      
      <!-- Toggle -->
      <rect x="900" y="-15" width="56" height="32" rx="16" fill="#3B82F6"/>
      <circle cx="940" cy="1" r="12" fill="white"/>
    </g>
    
    <line x1="32" y1="130" x2="1008" y2="130" stroke="#E5E7EB" stroke-width="1"/>
    
    <!-- Privacy -->
    <g transform="translate(32, 160)">
      <text x="0" y="0" font-family="Arial, sans-serif" font-size="17" font-weight="600" fill="#111827">Privacidad</text>
      <text x="0" y="22" font-family="Arial, sans-serif" font-size="14" fill="#6B7280">Controla quién puede ver tu actividad</text>
      
      <!-- Arrow -->
      <path d="M960 0 L970 5 L960 10" stroke="#9CA3AF" stroke-width="2" fill="none"/>
    </g>
    
    <line x1="32" y1="220" x2="1008" y2="220" stroke="#E5E7EB" stroke-width="1"/>
    
    <!-- Language -->
    <g transform="translate(32, 250)">
      <text x="0" y="0" font-family="Arial, sans-serif" font-size="17" font-weight="600" fill="#111827">Idioma</text>
      <text x="0" y="22" font-family="Arial, sans-serif" font-size="14" fill="#6B7280">Español</text>
      
      <!-- Arrow -->
      <path d="M960 0 L970 5 L960 10" stroke="#9CA3AF" stroke-width="2" fill="none"/>
    </g>
    
    <line x1="32" y1="310" x2="1008" y2="310" stroke="#E5E7EB" stroke-width="1"/>
    
    <!-- Change Password -->
    <g transform="translate(32, 340)">
      <text x="0" y="0" font-family="Arial, sans-serif" font-size="17" font-weight="600" fill="#111827">Cambiar contraseña</text>
      <text x="0" y="22" font-family="Arial, sans-serif" font-size="14" fill="#6B7280">Actualiza tu contraseña</text>
      
      <!-- Arrow -->
      <path d="M960 0 L970 5 L960 10" stroke="#9CA3AF" stroke-width="2" fill="none"/>
    </g>
  </g>
  
  <defs>
    <filter id="profileShadow">
      <feDropShadow dx="0" dy="2" stdDeviation="4" flood-opacity="0.08"/>
    </filter>
  </defs>
</svg>